<?xml version="1.0" encoding="UTF-8" standalone="no"?>
<svg
   xmlns:dc="http://purl.org/dc/elements/1.1/"
   xmlns:cc="http://creativecommons.org/ns#"
   xmlns:rdf="http://www.w3.org/1999/02/22-rdf-syntax-ns#"
   xmlns:svg="http://www.w3.org/2000/svg"
   xmlns="http://www.w3.org/2000/svg"
   xmlns:sodipodi="http://sodipodi.sourceforge.net/DTD/sodipodi-0.dtd"
   xmlns:inkscape="http://www.inkscape.org/namespaces/inkscape"
   width="793.700787402"
   height="1122.51968504"
   version="1.1"
   id="svg963"
   sodipodi:docname="x_hlrd_51.svg"
   inkscape:version="0.92.5 (0.92.5+68)">
  <metadata
     id="metadata967">
    <rdf:RDF>
      <cc:Work
         rdf:about="">
        <dc:format>image/svg+xml</dc:format>
        <dc:type
           rdf:resource="http://purl.org/dc/dcmitype/StillImage" />
        <dc:title></dc:title>
      </cc:Work>
    </rdf:RDF>
  </metadata>
  <sodipodi:namedview
     pagecolor="#ffffff"
     bordercolor="#666666"
     borderopacity="1"
     objecttolerance="10"
     gridtolerance="10"
     guidetolerance="10"
     inkscape:pageopacity="0"
     inkscape:pageshadow="2"
     inkscape:window-width="1920"
     inkscape:window-height="1053"
     id="namedview965"
     showgrid="true"
     showguides="true"
     inkscape:guide-bbox="true"
     inkscape:zoom="8.657733"
     inkscape:cx="393.72551"
     inkscape:cy="986.44017"
     inkscape:window-x="0"
     inkscape:window-y="0"
     inkscape:window-maximized="1"
     inkscape:current-layer="g961">
    <sodipodi:guide
       position="90.554882,1158.7329"
       orientation="-0.70710678,0.70710678"
       id="guide1258"
       inkscape:locked="false" />
    <sodipodi:guide
       position="539.63317,626.49194"
       orientation="0,1"
       id="guide1260"
       inkscape:locked="false" />
    <sodipodi:guide
       position="1058.9377,571.05017"
       orientation="1,0"
       id="guide1262"
       inkscape:locked="false" />
    <sodipodi:guide
       position="510.98826,924.95343"
       orientation="0,1"
       id="guide1264"
       inkscape:locked="false" />
    <sodipodi:guide
       position="757.27606,561.91321"
       orientation="1,0"
       id="guide1276"
       inkscape:locked="false" />
    <inkscape:grid
       type="xygrid"
       id="grid1364"
       units="mm"
       spacingx="1.8897638"
       spacingy="1.8897638" />
    <sodipodi:guide
       position="398.74016,1152.7559"
       orientation="0,1"
       id="guide5109"
       inkscape:locked="false" />
    <sodipodi:guide
       position="321.25985,1039.3701"
       orientation="1,0"
       id="guide5149"
       inkscape:locked="false" />
    <sodipodi:guide
       position="476.22048,805.03938"
       orientation="1,0"
       id="guide5151"
       inkscape:locked="false" />
    <sodipodi:guide
       position="400.62993,784.78973"
       orientation="1,0"
       id="guide1048"
       inkscape:locked="false" />
  </sodipodi:namedview>
  <desc
     id="desc869">/home/ward/Desktop/Tube_Holder/x_hlrd.dxf - scale = 1.000000, origin = (0.000000, 0.000000), method = manual</desc>
  <defs
     id="defs883">
    <marker
       id="DistanceX"
       orient="auto"
       refX="0.0"
       refY="0.0"
       style="overflow:visible">
      <path
         d="M 3,-3 L -3,3 M 0,-5 L  0,5"
         style="stroke:#000000; stroke-width:0.5"
         id="path871" />
    </marker>
    <pattern
       height="8"
       id="Hatch"
       patternUnits="userSpaceOnUse"
       width="8"
       x="0"
       y="0">
      <path
         d="M8 4 l-4,4"
         linecap="square"
         stroke="#000000"
         stroke-width="0.25"
         id="path874" />
      <path
         d="M6 2 l-4,4"
         linecap="square"
         stroke="#000000"
         stroke-width="0.25"
         id="path876" />
      <path
         d="M4 0 l-4,4"
         linecap="square"
         stroke="#000000"
         stroke-width="0.25"
         id="path878" />
    </pattern>
    <symbol
       id="*MODEL_SPACE" />
    <symbol
       id="*PAPER_SPACE" />
  </defs>
  <g
     inkscape:groupmode="layer"
     inkscape:label="0"
     id="g885" />
  <g
     inkscape:groupmode="layer"
     inkscape:label="Layer_1"
     id="g961">
    <path
       style="fill:none;stroke:#0000ff;stroke-width:1.00884962"
       d="m 259.7845,347.88424 c -1.6352,-0.2498 -3.2704,-0.4996 -4.7097,-1.24631 -1.39341,-0.7229 -2.60321,-1.91153 -3.33898,-3.28056 -0.76001,-1.41411 -1.01426,-3.0207 -1.26851,-4.62729"
       id="path887"
       inkscape:connector-curvature="0" />
    <path
       style="fill:none;stroke:#0000ff;stroke-width:0.8207925"
       d="M 250.46731,340.77729 V -21.301449"
       id="path889"
       inkscape:connector-curvature="0" />
    <path
       style="fill:none;stroke:#0000ff;stroke-width:1.00884962"
       d="m 250.46731,-20.27307 c 0.25425,-1.60658 0.5085,-3.21317 1.26851,-4.62728 0.73577,-1.36903 1.94557,-2.55766 3.33899,-3.28056 1.43929,-0.74671 3.07449,-0.99651 4.70969,-1.24631"
       id="path891"
       inkscape:connector-curvature="0" />
    <path
       style="fill:none;stroke:#0000ff;stroke-width:1.00884962"
       d="M 259.7845,-29.42722 H 391.32238"
       id="path893"
       inkscape:connector-curvature="0" />
    <path
       style="fill:none;stroke:#0000ff;stroke-width:1.00884962"
       d="m 391.32238,-29.42722 c 1.6352,0.2498 3.2704,0.4996 4.70969,1.24631 1.39342,0.7229 2.60322,1.91153 3.33899,3.28056 0.76001,1.41411 1.01426,3.0207 1.26851,4.62728"
       id="path895"
       inkscape:connector-curvature="0" />
    <path
       style="fill:none;stroke:#0000ff;stroke-width:1.02039576"
       d="m 400.62924,142.8657 c -24.08492,0.72741 -48.05919,0.91146 -71.81034,0"
       id="path901"
       inkscape:connector-curvature="0"
       sodipodi:nodetypes="cc" />
    <path
       style="fill:none;stroke:#0000ff;stroke-width:1.00884962"
       d="m 329.22107,142.85327 c -0.54176,0.0828 -1.08352,0.16562 -1.56038,0.41303 -0.46172,0.23955 -0.8626,0.63341 -1.10641,1.08705 -0.25182,0.46852 -0.3361,1.0008 -0.42038,1.53309"
       id="path903"
       inkscape:connector-curvature="0" />
    <path
       style="fill:none;stroke:#0000ff;stroke-width:1.00884962"
       d="m 326.1339,158.04519 c 0.0843,0.53228 0.16856,1.06456 0.42038,1.53308 0.24381,0.45364 0.64469,0.84751 1.10641,1.08706 0.47686,0.2474 1.01862,0.33021 1.56038,0.41302"
       id="path907"
       inkscape:connector-curvature="0" />
    <path
       style="fill:#0000ff;stroke:#0000ff;stroke-width:1.02286911;fill-opacity:1"
       d="m 328.8189,161.07835 c 71.81103,0 0,0 71.81103,0"
       id="path909"
       inkscape:connector-curvature="0"
       sodipodi:nodetypes="cc" />
    <path
       style="fill:none;stroke:#0000ff;stroke-width:1.01915967"
       d="M 400.63957,-24.104566 V 143.34768"
       id="path913"
       inkscape:connector-curvature="0" />
    <path
       style="fill:none;stroke:#0000ff;stroke-width:1.00884962"
       d="m 400.63957,338.73008 c -0.25425,1.60659 -0.5085,3.21318 -1.26851,4.62729 -0.73577,1.36903 -1.94557,2.55766 -3.33898,3.28056 -1.4393,0.74671 -3.0745,0.99651 -4.7097,1.24631"
       id="path915"
       inkscape:connector-curvature="0" />
    <path
       style="fill:none;stroke:#0000ff;stroke-width:1.00884962"
       d="M 391.32238,347.88424 H 259.7845 v 0"
       id="path917"
       inkscape:connector-curvature="0" />
    <path
       style="fill:none;stroke:#0000ff;stroke-width:1.01323628"
       d="m 325.76214,291.61705 c 2.2e-4,0 4.4e-4,0 6.6e-4,0 2.2e-4,0 4.4e-4,0 6.6e-4,0 2.2e-4,0 4.4e-4,0 6.6e-4,0 2.99925,-1.1e-4 6.01062,-0.60304 8.84628,-1.62946 2.94531,-1.06612 5.70104,-2.58912 8.19567,-4.45185 2.69418,-2.01171 5.08382,-4.41966 7.15102,-7.06018 4.70602,-6.01118 7.74094,-13.22765 9.43894,-20.76465 1.75217,-7.77746 2.08075,-15.89623 0.42014,-23.49792 -1.62522,-7.43972 -5.15576,-14.38416 -8.6863,-21.3286"
       id="path919"
       inkscape:connector-curvature="0" />
    <path
       style="fill:none;stroke:#0000ff;stroke-width:1.01323628"
       d="m 349.71459,211.01069 c -4.9316,-4.71787 -9.86321,-9.43574 -16.12734,-11.55662 -5.60912,-1.89911 -12.28668,-1.71595 -17.814,0.44467 -6.23821,2.43851 -11.01127,7.39586 -15.78435,12.35319"
       id="path921"
       inkscape:connector-curvature="0" />
    <path
       style="fill:none;stroke:#0000ff;stroke-width:1.01323628"
       d="m 351.12987,212.88439 -1.41528,-1.8737"
       id="path923"
       inkscape:connector-curvature="0" />
    <path
       style="fill:none;stroke:#0000ff;stroke-width:1.01323628"
       d="m 299.9889,212.25193 c -3.62915,6.86274 -7.2583,13.72547 -8.98919,21.10815 -1.77561,7.57343 -1.5536,15.69403 0.084,23.50344 1.59323,7.59771 4.52636,14.90087 9.13972,20.99537 2.14128,2.82873 4.64453,5.39709 7.49551,7.57936 2.62685,2.01073 5.54891,3.69368 8.66836,4.66982 3.00299,0.93968 6.1889,1.22433 9.37481,1.50898"
       id="path925"
       inkscape:connector-curvature="0" />
    <flowRoot
       xml:space="preserve"
       id="flowRoot1083"
       style="fill:black;stroke:none;stroke-opacity:1;stroke-width:1px;stroke-linejoin:miter;stroke-linecap:butt;fill-opacity:1;font-family:'URW Gothic L';font-style:normal;font-weight:normal;font-size:15px;line-height:125%;letter-spacing:0px;word-spacing:0px;-inkscape-font-specification:'URW Gothic L, Normal';font-stretch:normal;font-variant:normal;text-anchor:start;text-align:start;writing-mode:lr"><flowRegion
         id="flowRegion1085"><rect
           id="rect1087"
           width="59.45826"
           height="26.135498"
           x="-32.015984"
           y="269.19562" /></flowRegion><flowPara
         id="flowPara1089" /></flowRoot>    <path
       style="fill:none;stroke:#0000ff;stroke-width:0"
       d="m 335.72369,188.57836 c 0,0 0,0 0,0"
       id="path909-3"
       inkscape:connector-curvature="0"
       sodipodi:nodetypes="cc" />
    <path
       style="fill:#0000ff;fill-opacity:1;fill-rule:evenodd;stroke:#0000ff;stroke-width:0.98512954px;stroke-linecap:butt;stroke-linejoin:miter;stroke-opacity:1"
       d="m 326.1339,145.51177 v 12.53342"
       id="path1012"
       inkscape:connector-curvature="0" />
    <path
       style="fill:none;stroke:#0000ff;stroke-width:1.05131793"
       d="M 400.64017,160.62988 V 338.81632"
       id="path913-6"
       inkscape:connector-curvature="0" />
  </g>
</svg>
